<svg xmlns="http://www.w3.org/2000/svg" width="30" height="30" fill-rule="evenodd" clip-rule="evenodd" image-rendering="optimizeQuality" shape-rendering="geometricPrecision" text-rendering="geometricPrecision" viewBox="0 0 2810 2810"><circle cx="1405" cy="1405" r="1405" fill="#6b7f9e"/><path fill="#ff7069" d="M708 515l1383 0c32,0 58,26 58,58l0 438c0,32 -26,58 -58,58l-1383 0c-32,0 -58,-26 -58,-58l0 -438c0,-32 26,-58 58,-58z"/><path fill="#f7635b" d="M654 1031l1491 0c-8,22 -29,38 -54,38l-1383 0c-25,0 -46,-16 -54,-38z"/><path fill="#fff" fill-rule="nonzero" d="M1124 637l-80 0 0 347 54 0 0 -130 26 0c54,0 81,-30 81,-86l0 -45c0,-55 -27,-86 -81,-86zm0 50c17,0 27,8 27,33l0 52c0,25 -9,33 -27,33l-26 0 0 -117 26 0zm159 30c0,-25 11,-34 28,-34 17,0 28,9 28,34l0 187c0,25 -11,34 -28,34 -17,0 -28,-9 -28,-34l0 -187zm-54 184c0,55 29,87 83,87 53,0 83,-32 83,-87l0 -180c0,-55 -29,-87 -83,-87 -53,0 -83,32 -83,87l0 180zm194 -180c0,99 106,112 106,184 0,25 -11,34 -28,34 -17,0 -28,-9 -28,-34l0 -25 -51 0 0 21c0,55 28,87 81,87 53,0 81,-32 81,-87 0,-99 -106,-112 -106,-184 0,-25 10,-34 27,-34 17,0 27,9 27,34l0 14 51 0 0 -11c0,-55 -27,-87 -80,-87 -53,0 -80,32 -80,87l0 0zm176 -34l57 0 0 297 54 0 0 -297 57 0 0 -50 -168 0 0 50z"/><path fill="#fed198" d="M1908 1452l0 0c-31,-22 -68,-9 -97,16l-182 153 -14 -46 -13 -113 6 -247 6 -249c1,-39 -30,-73 -69,-73l0 0c-39,0 -72,30 -73,69l-10 426 -19 1 7 -99c3,-39 -30,-72 -69,-73 -39,-1 -70,30 -73,69l-7 108 -21 1 6 -70c3,-39 -30,-73 -69,-73l0 0c-39,0 -69,30 -73,69l-7 78 -26 1 2 -40c2,-39 -30,-73 -69,-73l0 0c-39,0 -71,30 -73,69l-4 83 -2 14 17 447c2,61 27,112 54,142 8,8 16,15 23,20l-26 698c118,32 242,49 370,49 51,0 101,-3 150,-8l-31 -757c111,-52 319,-385 399,-496 22,-31 15,-75 -16,-97z"/><path fill="#f0b97d" d="M1514 2806c14,-1 28,-2 41,-4l-31 -757c111,-52 319,-385 399,-496 8,-11 12,-23 13,-35 -72,92 -341,474 -451,515l29 776z"/><path fill="#83cf8f" d="M1586 2296l-569 -7 -34 456c133,42 276,65 423,65 67,0 134,-5 199,-14l-18 -501z"/><polygon fill="#fff" points="1570 2194 1035 2185 1035 2289 1569 2298"/><path fill="#e4e7ed" d="M1097 2375c-25,0 -45,19 -46,44 0,24 20,44 45,44 25,0 45,-19 46,-44 0,-24 -20,-44 -45,-44z"/><path fill="#fff" d="M1840 1466l-44 44 67 67 44-44c34-34-33-101-67-67zM1498 949l-2 53 95 2 2-53c2-42-98-43-95-2z"/></svg>